# xmcd
# Track frame offsets:
# 183
# 1978
# 12910
# 25230
# 37878
# 47158
# 56658
# 67353
# 79400
# 92723
# 102950
# 116353
# 125348
# 136538
# 147748
# 159073
# 171003
# 181150
# 191118
# 201418
# 211503
# 224068
# 227673
#
# Disc length: 3124 seconds
# Revision: 0
# Processed by: cddbd v1.4PL0 Copyright (c) Steve Scherf et al.
# Submitted via: VisiTrax 2.9.5.180 - For more info visit www.synapsa.com
#
DISCID=410c3217
DTITLE=Faron Young - The Radio Shows volume 1
DYEAR=1993
DGENRE=
TTITLE0=Introduction
TTITLE1=He'll have to go
TTITLE2=The echo of your footsteps
TTITLE3=I miss you already
TTITLE4=Busted
TTITLE5=Unmitigated gall
TTITLE6=Swinging doors
TTITLE7=I let it slip away
TTITLE8=I'd be (just) fool enough to fall
TTITLE9=Detroit city
TTITLE10=The minute you're gone
TTITLE11=The race is on
TTITLE12=Sweet thang
TTITLE13=The other woman
TTITLE14=Open up your heart
TTITLE15=Too much to dream last night
TTITLE16=Ain't had no lovin'
TTITLE17=Face to the wall
TTITLE18=Think of me when you're lonely
TTITLE19=Let's pretend
TTITLE20=I fall to pieces
TTITLE21=Live spot: Pearl beer
TTITLE22=Sign off from Faron
EXTD=
EXTT0=
EXTT1=
EXTT2=
EXTT3=
EXTT4=
EXTT5=
EXTT6=
EXTT7=
EXTT8=
EXTT9=
EXTT10=
EXTT11=
EXTT12=
EXTT13=
EXTT14=
EXTT15=
EXTT16=
EXTT17=
EXTT18=
EXTT19=
EXTT20=
EXTT21=
EXTT22=
PLAYORDER=
